<svg width="356" height="377" viewBox="0 0 356 377" fill="none" xmlns="http://www.w3.org/2000/svg">
<path d="M23 371.5L332 371.5M5 349C5 360.046 13.9543 369 25 369H329.787C340.833 369 349.787 360.046 349.787 349V317.551C349.787 306.505 340.833 297.551 329.787 297.551H182.259C167.188 297.551 158.268 281.981 163.943 269.426C164.649 267.862 166.29 267 168.006 267H331C342.046 267 351 258.046 351 247V127C351 115.954 342.046 107 331 107H315.689C311.395 107 309.099 101.944 311.924 98.7106L345.063 60.7734C348.246 57.1293 350 52.4547 350 47.616V25C350 13.9543 341.046 5 330 5H25.2128C14.1671 5 5.21283 13.9543 5.21283 25V56.4492C5.21283 67.4949 14.1671 76.4492 25.2128 76.4492H172.741C187.812 76.4492 196.732 92.0195 191.057 104.574C190.351 106.138 188.71 107 186.994 107H26C14.9543 107 6 115.954 6 127V247C6 258.046 14.9543 267 26 267H39.3107C43.6045 267 45.9012 272.056 43.0764 275.289L9.93743 313.227C6.75419 316.871 5 321.545 5 326.384V349ZM23 147C23 135.954 31.9543 127 43 127H93C104.046 127 113 135.954 113 147V227C113 238.046 104.046 247 93 247H43C31.9543 247 23 238.046 23 227V147ZM133 147C133 135.954 141.954 127 153 127H203C214.046 127 223 135.954 223 147V227C223 238.046 214.046 247 203 247H153C141.954 247 133 238.046 133 227V147ZM262 127C250.954 127 242 135.954 242 147V227C242 238.046 250.954 247 262 247H312C323.046 247 332 238.046 332 227V147C332 135.954 323.046 127 312 127H262ZM210.227 187.091C210.227 194.705 208.784 201.182 205.898 206.523C203.034 211.864 199.125 215.943 194.171 218.761C189.239 221.557 183.693 222.955 177.534 222.955C171.33 222.955 165.762 221.545 160.83 218.727C155.898 215.909 152 211.83 149.137 206.489C146.273 201.148 144.841 194.682 144.841 187.091C144.841 179.477 146.273 173 149.137 167.659C152 162.318 155.898 158.25 160.83 155.455C165.762 152.636 171.33 151.227 177.534 151.227C183.693 151.227 189.239 152.636 194.171 155.455C199.125 158.25 203.034 162.318 205.898 167.659C208.784 173 210.227 179.477 210.227 187.091ZM195.262 187.091C195.262 182.159 194.523 178 193.046 174.614C191.591 171.227 189.534 168.659 186.875 166.909C184.216 165.159 181.102 164.284 177.534 164.284C173.966 164.284 170.852 165.159 168.193 166.909C165.534 168.659 163.466 171.227 161.989 174.614C160.534 178 159.807 182.159 159.807 187.091C159.807 192.023 160.534 196.182 161.989 199.568C163.466 202.955 165.534 205.523 168.193 207.273C170.852 209.023 173.966 209.898 177.534 209.898C181.102 209.898 184.216 209.023 186.875 207.273C189.534 205.523 191.591 202.955 193.046 199.568C194.523 196.182 195.262 192.023 195.262 187.091ZM280.784 169.352V217C280.784 219.761 283.023 222 285.784 222H290.375C293.137 222 295.375 219.761 295.375 217V169.352C295.375 166.591 297.614 164.352 300.375 164.352H311.75C314.512 164.352 316.75 162.114 316.75 159.352V157.182C316.75 154.42 314.512 152.182 311.75 152.182H264.409C261.648 152.182 259.409 154.42 259.409 157.182V159.352C259.409 162.114 261.648 164.352 264.409 164.352H275.784C278.546 164.352 280.784 166.591 280.784 169.352ZM91.7616 217V214.83C91.7616 212.068 89.523 209.83 86.7615 209.83H66.8297C64.0683 209.83 61.8297 207.591 61.8297 204.83V157.182C61.8297 154.42 59.5911 152.182 56.8297 152.182H52.0684C49.3069 152.182 47.0684 154.42 47.0684 157.182V217C47.0684 219.761 49.3069 222 52.0684 222H86.7616C89.523 222 91.7616 219.761 91.7616 217Z" stroke="white" stroke-width="10" stroke-linecap="round"/>
</svg>
