<svg width="346" height="364" viewBox="0 0 346 364" fill="none" xmlns="http://www.w3.org/2000/svg">
<path fill-rule="evenodd" clip-rule="evenodd" d="M20 364C8.95431 364 0 355.046 0 344V321.384C0 316.545 1.75419 311.871 4.93743 308.227L38.0764 270.289C40.9012 267.056 38.6045 262 34.3107 262H21C9.9543 262 1 253.046 1 242V122C1 110.954 9.95431 102 21 102H181.994C183.71 102 185.351 101.138 186.057 99.5742C191.732 87.0195 182.812 71.4492 167.741 71.4492H20.2128C9.16713 71.4492 0.212831 62.4949 0.212831 51.4492V20C0.212831 8.95431 9.16714 0 20.2128 0H325C336.046 0 345 8.9543 345 20V42.616C345 47.4547 343.246 52.1293 340.063 55.7734L306.924 93.7106C304.099 96.9444 306.395 102 310.689 102H326C337.046 102 346 110.954 346 122V242C346 253.046 337.046 262 326 262H163.006C161.29 262 159.649 262.862 158.943 264.426C153.268 276.981 162.188 292.551 177.259 292.551H324.787C335.833 292.551 344.787 301.505 344.787 312.551V344C344.787 355.046 335.833 364 324.787 364H20ZM38 122C26.9543 122 18 130.954 18 142V222C18 233.046 26.9543 242 38 242H88C99.0457 242 108 233.046 108 222V142C108 130.954 99.0457 122 88 122H38ZM148 122C136.954 122 128 130.954 128 142V222C128 233.046 136.954 242 148 242H198C209.046 242 218 233.046 218 222V142C218 130.954 209.046 122 198 122H148ZM237 142C237 130.954 245.954 122 257 122H307C318.046 122 327 130.954 327 142V222C327 233.046 318.046 242 307 242H257C245.954 242 237 233.046 237 222V142Z" fill="white"/>
<path d="M47.0684 217C44.3069 217 42.0684 214.761 42.0684 212V152.182C42.0684 149.42 44.3069 147.182 47.0684 147.182H51.8297C54.5911 147.182 56.8297 149.42 56.8297 152.182V199.83C56.8297 202.591 59.0683 204.83 61.8297 204.83H81.7615C84.523 204.83 86.7615 207.068 86.7615 209.83V212C86.7615 214.761 84.523 217 81.7615 217H47.0684Z" fill="white"/>
<path d="M205.227 182.091C205.227 189.705 203.784 196.182 200.898 201.523C198.034 206.864 194.125 210.943 189.171 213.761C184.239 216.557 178.693 217.955 172.534 217.955C166.33 217.955 160.762 216.545 155.83 213.727C150.898 210.909 147 206.83 144.137 201.489C141.273 196.148 139.841 189.682 139.841 182.091C139.841 174.477 141.273 168 144.137 162.659C147 157.318 150.898 153.25 155.83 150.455C160.762 147.636 166.33 146.227 172.534 146.227C178.693 146.227 184.239 147.636 189.171 150.455C194.125 153.25 198.034 157.318 200.898 162.659C203.784 168 205.227 174.477 205.227 182.091ZM190.262 182.091C190.262 177.159 189.523 173 188.046 169.614C186.591 166.227 184.534 163.659 181.875 161.909C179.216 160.159 176.102 159.284 172.534 159.284C168.966 159.284 165.852 160.159 163.193 161.909C160.534 163.659 158.466 166.227 156.989 169.614C155.534 173 154.807 177.159 154.807 182.091C154.807 187.023 155.534 191.182 156.989 194.568C158.466 197.955 160.534 200.523 163.193 202.273C165.852 204.023 168.966 204.898 172.534 204.898C176.102 204.898 179.216 204.023 181.875 202.273C184.534 200.523 186.591 197.955 188.046 194.568C189.523 191.182 190.262 187.023 190.262 182.091Z" fill="white"/>
<path d="M259.409 159.352C256.648 159.352 254.409 157.114 254.409 154.352V152.182C254.409 149.42 256.648 147.182 259.409 147.182H306.75C309.512 147.182 311.75 149.42 311.75 152.182V154.352C311.75 157.114 309.512 159.352 306.75 159.352H295.375C292.614 159.352 290.375 161.591 290.375 164.352V212C290.375 214.761 288.137 217 285.375 217H280.784C278.023 217 275.784 214.761 275.784 212V164.352C275.784 161.591 273.546 159.352 270.784 159.352H259.409Z" fill="white"/>
</svg>
